<svg width="55" height="54" viewBox="0 0 55 54" fill="none" xmlns="http://www.w3.org/2000/svg">
<circle cx="27.5" cy="27" r="25" fill="#5AA768" fill-opacity="0.22"/>
<path fill-rule="evenodd" clip-rule="evenodd" d="M15.9416 34.3101V16.9941C15.9416 15.8459 16.3977 14.7448 17.2095 13.933C18.0214 13.1211 19.1225 12.665 20.2706 12.665H34.7006C35.8487 12.665 36.9498 13.1211 37.7617 13.933C38.5735 14.7448 39.0296 15.8459 39.0296 16.9941V34.3101C39.3674 34.3104 39.6944 34.4293 39.9536 34.6459C40.2128 34.8626 40.3878 35.1633 40.448 35.4957C40.5083 35.8281 40.45 36.1711 40.2834 36.4649C40.1168 36.7588 39.8523 36.9848 39.5361 37.1038L27.9921 41.4328C27.6655 41.5552 27.3057 41.5552 26.9791 41.4328L15.4351 37.1038C15.1189 36.9848 14.8544 36.7588 14.6878 36.4649C14.5211 36.1711 14.4629 35.8281 14.5231 35.4957C14.5834 35.1633 14.7584 34.8626 15.0176 34.6459C15.2768 34.4293 15.6038 34.3104 15.9416 34.3101ZM28.9286 18.4371C28.9286 18.0543 28.7766 17.6873 28.506 17.4167C28.2353 17.1461 27.8683 16.9941 27.4856 16.9941C27.1029 16.9941 26.7359 17.1461 26.4652 17.4167C26.1946 17.6873 26.0426 18.0543 26.0426 18.4371V19.8801H24.5996C23.6428 19.8801 22.7252 20.2601 22.0487 20.9367C21.3722 21.6132 20.9921 22.5308 20.9921 23.4876C20.9921 24.4443 21.3722 25.3619 22.0487 26.0385C22.7252 26.715 23.6428 27.0951 24.5996 27.0951H30.3716C30.563 27.0951 30.7465 27.1711 30.8818 27.3064C31.0171 27.4417 31.0931 27.6252 31.0931 27.8166C31.0931 28.0079 31.0171 28.1915 30.8818 28.3268C30.7465 28.4621 30.563 28.5381 30.3716 28.5381H23.1566C22.7739 28.5381 22.4068 28.6901 22.1362 28.9607C21.8656 29.2313 21.7136 29.5984 21.7136 29.9811C21.7136 30.3638 21.8656 30.7308 22.1362 31.0014C22.4068 31.2721 22.7739 31.4241 23.1566 31.4241H26.0426V32.8671C26.0426 33.2498 26.1946 33.6168 26.4652 33.8875C26.7359 34.1581 27.1029 34.3101 27.4856 34.3101C27.8683 34.3101 28.2353 34.1581 28.506 33.8875C28.7766 33.6168 28.9286 33.2498 28.9286 32.8671V31.4241H30.3716C31.3284 31.4241 32.246 31.044 32.9225 30.3675C33.599 29.6909 33.9791 28.7733 33.9791 27.8166C33.9791 26.8598 33.599 25.9422 32.9225 25.2657C32.246 24.5891 31.3284 24.2091 30.3716 24.2091H24.5996C24.4082 24.2091 24.2247 24.1331 24.0894 23.9977C23.9541 23.8624 23.8781 23.6789 23.8781 23.4876C23.8781 23.2962 23.9541 23.1127 24.0894 22.9774C24.2247 22.8421 24.4082 22.7661 24.5996 22.7661H31.8146C32.1973 22.7661 32.5644 22.614 32.835 22.3434C33.1056 22.0728 33.2576 21.7058 33.2576 21.3231C33.2576 20.9404 33.1056 20.5733 32.835 20.3027C32.5644 20.0321 32.1973 19.8801 31.8146 19.8801H28.9286V18.4371Z" fill="#1B7660"/>
</svg>
