<svg width="55" height="54" viewBox="0 0 55 54" fill="none" xmlns="http://www.w3.org/2000/svg">
<circle cx="27.5" cy="27" r="25" fill="#5AA768" fill-opacity="0.22"/>
<path d="M39.3504 27.3824V23.086L27.8402 29.0341C27.7121 29.1002 27.5697 29.1348 27.4252 29.1348C27.2806 29.1348 27.1382 29.1002 27.0102 29.0341L15.5 23.086V32.6645L15.506 32.881C15.562 33.856 15.9941 34.773 16.7137 35.4437C17.4333 36.1144 18.3857 36.488 19.3757 36.4879H27.0877C27.3071 35.9915 27.6184 35.5386 28.0095 35.1527L35.049 28.2082C35.601 27.6636 36.3054 27.2941 37.0718 27.1469C37.8381 26.9998 38.6316 27.0818 39.3504 27.3824ZM35.4747 17.665H19.3757L19.1539 17.6709C18.2329 17.7229 17.3609 18.0973 16.6946 18.7267C16.0283 19.3562 15.6115 20.1994 15.5191 21.1049L27.4252 27.2577L39.3313 21.1049C39.2349 20.162 38.787 19.288 38.0744 18.6524C37.3618 18.0168 36.4354 17.6649 35.4747 17.665ZM35.8921 29.0411L28.8526 35.9844C28.4425 36.3892 28.1515 36.8963 28.0107 37.4514L27.4645 39.6055C27.4102 39.8198 27.4131 40.0444 27.4729 40.2572C27.5327 40.4701 27.6474 40.6641 27.8058 40.8203C27.9643 40.9764 28.161 41.0894 28.3768 41.1482C28.5927 41.2071 28.8203 41.2098 29.0375 41.156L31.2198 40.6184C31.7831 40.4794 32.2976 40.1919 32.708 39.7867L39.7463 32.8434C40.2377 32.3352 40.5082 31.6576 40.4998 30.9553C40.4914 30.2531 40.2049 29.5819 39.7015 29.0853C39.1981 28.5887 38.5178 28.306 37.8059 28.2978C37.0941 28.2895 36.4072 28.5563 35.8921 29.0411Z" fill="#1B7660"/>
</svg>
