<svg width="54" height="54" viewBox="0 0 54 54" fill="none" xmlns="http://www.w3.org/2000/svg">
<circle cx="27" cy="27" r="25" fill="#5AA768" fill-opacity="0.22"/>
<path d="M29.7732 14.1632C31.1564 14.9617 32.3525 16.0471 33.281 17.3465C34.2095 18.6459 34.8489 20.1292 35.1561 21.6964C35.4634 23.2636 35.4314 24.8785 35.0622 26.4323C34.6931 27.9861 33.9954 29.4429 33.0161 30.7044L40.5458 38.2342C40.8005 38.4978 40.9413 38.8509 40.9382 39.2174C40.935 39.5839 40.788 39.9345 40.5288 40.1936C40.2697 40.4528 39.9191 40.5998 39.5526 40.603C39.1861 40.6062 38.833 40.4653 38.5694 40.2107L31.0382 32.6809C29.3853 33.9638 27.4056 34.7571 25.3242 34.9708C23.2427 35.1845 21.1431 34.8099 19.264 33.8897C17.3849 32.9694 15.8017 31.5404 14.6943 29.7651C13.587 27.9897 13 25.9393 13 23.847L13.007 23.4486C13.0758 21.5207 13.6421 19.6434 14.651 17.9992C15.6598 16.3549 17.0769 14.9996 18.7645 14.065C20.4521 13.1304 22.3528 12.6483 24.2818 12.6655C26.2108 12.6827 28.1026 13.1987 29.7732 14.1632ZM26.9777 18.2559H23.4833C22.5565 18.2559 21.6677 18.6241 21.0123 19.2794C20.357 19.9347 19.9888 20.8235 19.9888 21.7503C19.9888 22.6771 20.357 23.5659 21.0123 24.2213C21.6677 24.8766 22.5565 25.2447 23.4833 25.2447H24.881C25.0664 25.2447 25.2442 25.3184 25.3752 25.4494C25.5063 25.5805 25.5799 25.7583 25.5799 25.9436C25.5799 26.129 25.5063 26.3068 25.3752 26.4378C25.2442 26.5689 25.0664 26.6425 24.881 26.6425H21.3866C21.0159 26.6425 20.6604 26.7898 20.3982 27.0519C20.1361 27.314 19.9888 27.6696 19.9888 28.0403C19.9888 28.411 20.1361 28.7665 20.3982 29.0287C20.6604 29.2908 21.0159 29.4381 21.3866 29.4381H24.881C25.8078 29.4381 26.6966 29.0699 27.352 28.4146C28.0073 27.7592 28.3755 26.8704 28.3755 25.9436C28.3755 25.0169 28.0073 24.128 27.352 23.4727C26.6966 22.8174 25.8078 22.4492 24.881 22.4492H23.4833C23.2979 22.4492 23.1202 22.3756 22.9891 22.2445C22.858 22.1134 22.7844 21.9357 22.7844 21.7503C22.7844 21.565 22.858 21.3872 22.9891 21.2561C23.1202 21.1251 23.2979 21.0514 23.4833 21.0514H26.9777C27.3484 21.0514 27.7039 20.9042 27.9661 20.642C28.2282 20.3799 28.3755 20.0244 28.3755 19.6537C28.3755 19.283 28.2282 18.9274 27.9661 18.6653C27.7039 18.4032 27.3484 18.2559 26.9777 18.2559Z" fill="#1B7660"/>
</svg>
