<svg width="55" height="54" viewBox="0 0 55 54" fill="none" xmlns="http://www.w3.org/2000/svg">
<circle cx="27.5" cy="27" r="25" fill="#5AA768" fill-opacity="0.22"/>
<path d="M28 38.665C31.3152 38.665 34.4946 37.3481 36.8388 35.0039C39.183 32.6597 40.5 29.4802 40.5 26.165C40.5 22.8498 39.183 19.6704 36.8388 17.3262C34.4946 14.982 31.3152 13.665 28 13.665C24.6848 13.665 21.5054 14.982 19.1612 17.3262C16.817 19.6704 15.5 22.8498 15.5 26.165C15.5 29.4802 16.817 32.6597 19.1612 35.0039C21.5054 37.3481 24.6848 38.665 28 38.665ZM24.875 21.4775C24.875 20.6487 25.2042 19.8539 25.7903 19.2678C26.3763 18.6818 27.1712 18.3525 28 18.3525C28.8288 18.3525 29.6237 18.6818 30.2097 19.2678C30.7958 19.8539 31.125 20.6487 31.125 21.4775C31.125 22.3063 30.7958 23.1012 30.2097 23.6872C29.6237 24.2733 28.8288 24.6025 28 24.6025C27.1712 24.6025 26.3763 24.2733 25.7903 23.6872C25.2042 23.1012 24.875 22.3063 24.875 21.4775ZM24.0938 26.165H31.9062C32.5279 26.165 33.124 26.412 33.5635 26.8515C34.0031 27.291 34.25 27.8872 34.25 28.5088C34.25 30.2525 33.5328 31.6494 32.3563 32.5947C31.1984 33.5244 29.6453 33.9775 28 33.9775C26.3547 33.9775 24.8016 33.5244 23.6437 32.5947C22.4687 31.6494 21.75 30.2525 21.75 28.5088C21.75 27.8872 21.9969 27.291 22.4365 26.8515C22.876 26.412 23.4721 26.165 24.0938 26.165Z" fill="#1B7660"/>
</svg>
