<svg width="54" height="54" viewBox="0 0 54 54" fill="none" xmlns="http://www.w3.org/2000/svg">
<circle cx="27" cy="27" r="25" fill="#5AA768" fill-opacity="0.22"/>
<path d="M31.6665 26.165C30.5957 26.165 29.5603 25.6695 28.7499 24.7703C27.9619 23.8931 27.4806 22.7234 27.3957 21.4776C27.3051 20.1487 27.6962 18.9267 28.4967 18.0361C29.2973 17.1454 30.4165 16.665 31.6665 16.665C32.9077 16.665 34.0301 17.1541 34.828 18.0425C35.6337 18.9396 36.0259 20.1595 35.9352 21.4771C35.8483 22.7245 35.3675 23.8937 34.5811 24.7697C33.7728 25.6695 32.7379 26.165 31.6665 26.165ZM38.5326 35.665H24.8009C24.5802 35.6662 24.3621 35.615 24.1634 35.5151C23.9648 35.4153 23.7909 35.2695 23.6551 35.0891C23.5111 34.8935 23.4116 34.6667 23.3642 34.4256C23.3168 34.1845 23.3226 33.9354 23.3811 33.697C23.8197 31.872 24.9061 30.3585 26.5228 29.3205C27.9577 28.3997 29.7842 27.8923 31.6665 27.8923C33.5858 27.8923 35.3644 28.3781 36.8076 29.2984C38.4279 30.331 39.516 31.8531 39.9524 33.7002C40.0103 33.9388 40.0154 34.1879 39.9675 34.4289C39.9195 34.6698 39.8196 34.8964 39.6753 35.0918C39.5397 35.2714 39.3662 35.4164 39.1681 35.5158C38.9701 35.6151 38.7527 35.6662 38.5326 35.665ZM21.8228 26.3809C19.99 26.3809 18.3786 24.6148 18.2291 22.4444C18.1551 21.3324 18.4895 20.3042 19.1666 19.5501C19.8364 18.8036 20.7812 18.3923 21.8228 18.3923C22.8645 18.3923 23.802 18.8058 24.4754 19.5566C25.1577 20.3166 25.491 21.3427 25.4129 22.4455C25.2634 24.6153 23.6525 26.3809 21.8228 26.3809ZM25.2426 28.0785C24.3265 27.6143 23.1374 27.3822 21.8233 27.3822C20.289 27.3822 18.7989 27.7968 17.627 28.5492C16.2984 29.4037 15.4046 30.6478 15.0437 32.15C14.9909 32.3661 14.9859 32.5917 15.0291 32.8101C15.0723 33.0284 15.1626 33.2338 15.2932 33.4109C15.4171 33.5758 15.5759 33.709 15.7573 33.8004C15.9387 33.8917 16.1379 33.9387 16.3395 33.9377H22.1207C22.2183 33.9377 22.3128 33.9022 22.3877 33.8374C22.4626 33.7726 22.5132 33.6826 22.5306 33.5831C22.5364 33.5491 22.5437 33.5151 22.552 33.4816C22.9936 31.6432 24.0285 30.0897 25.5577 28.9573C25.6139 28.9153 25.6592 28.8594 25.6893 28.7946C25.7194 28.7299 25.7335 28.6585 25.7303 28.5867C25.727 28.5149 25.7065 28.4451 25.6706 28.3836C25.6348 28.3221 25.5847 28.2709 25.5249 28.2345C25.4431 28.1849 25.3494 28.1325 25.2426 28.0785Z" fill="#1B7660"/>
</svg>
