<svg width="42" height="42" viewBox="0 0 42 42" fill="none" xmlns="http://www.w3.org/2000/svg">
<circle cx="20.949" cy="20.949" r="20.949" fill="#1B7660"/>
<g clip-path="url(#clip0_37_21228)">
<path d="M27.959 23.31C27.0265 23.31 26.2387 23.9388 25.9958 24.7944H24.0254V22.6214H26.0372C28.2223 22.6214 30 20.8438 30 18.6586C30 16.9067 28.838 15.3676 27.1884 14.8663C26.6898 12.8697 24.8875 11.4377 22.8001 11.4377C21.9909 11.4377 21.2158 11.6463 20.5317 12.045C19.8072 11.3825 18.8573 11.0103 17.8591 11.0103C15.7182 11.0103 13.9683 12.717 13.8985 14.8412C12.2041 15.3148 11 16.8662 11 18.6586C11 20.8438 12.7777 22.6214 14.9628 22.6214H16.9746V24.7944H15.0043C14.7613 23.9388 13.9735 23.31 13.041 23.31C11.9156 23.31 11 24.2256 11 25.351C11 26.4764 11.9156 27.392 13.041 27.392C13.9735 27.392 14.7613 26.7633 15.0043 25.9077H17.5312C17.8387 25.9077 18.0879 25.6584 18.0879 25.351V22.6214H19.9434V25.9854C19.0877 26.2284 18.459 27.0162 18.459 27.9487C18.459 29.0741 19.3746 29.9897 20.5 29.9897C21.6254 29.9897 22.541 29.0741 22.541 27.9487C22.541 27.0162 21.9123 26.2284 21.0566 25.9854V22.6214H22.9121V25.351C22.9121 25.6584 23.1613 25.9077 23.4688 25.9077H25.9958C26.2387 26.7633 27.0265 27.392 27.959 27.392C29.0844 27.392 30 26.4764 30 25.351C30 24.2256 29.0844 23.31 27.959 23.31ZM13.041 26.2788C12.5295 26.2788 12.1133 25.8626 12.1133 25.351C12.1133 24.8395 12.5295 24.4233 13.041 24.4233C13.5526 24.4233 13.9688 24.8395 13.9688 25.351C13.9688 25.8626 13.5526 26.2788 13.041 26.2788ZM21.4277 27.9487C21.4277 28.4602 21.0116 28.8764 20.5 28.8764C19.9884 28.8764 19.5723 28.4602 19.5723 27.9487C19.5723 27.4371 19.9884 27.0209 20.5 27.0209C21.0116 27.0209 21.4277 27.4371 21.4277 27.9487ZM14.9628 21.5082C13.3916 21.5082 12.1133 20.2299 12.1133 18.6586C12.1133 17.2543 13.16 16.0422 14.548 15.8392C14.8409 15.7964 15.049 15.5318 15.0217 15.2371C15.0137 15.1501 15.0096 15.0613 15.0096 14.973C15.0096 13.4018 16.2879 12.1236 17.8591 12.1236C18.6974 12.1236 19.488 12.488 20.028 13.1234C20.2176 13.3464 20.5475 13.3845 20.783 13.2105C21.3668 12.779 22.0643 12.551 22.8001 12.551C24.4933 12.551 25.9014 13.7933 26.1646 15.4095C26.2019 15.638 26.3767 15.8196 26.6036 15.8656C27.9265 16.1334 28.8867 17.308 28.8867 18.6586C28.8867 20.2299 27.6084 21.5082 26.0372 21.5082H14.9628ZM27.959 26.2788C27.4474 26.2788 27.0312 25.8626 27.0312 25.351C27.0312 24.8395 27.4474 24.4233 27.959 24.4233C28.4705 24.4233 28.8867 24.8395 28.8867 25.351C28.8867 25.8626 28.4705 26.2788 27.959 26.2788Z" fill="white"/>
</g>
<defs>
<clipPath id="clip0_37_21228">
<rect width="19" height="19" fill="white" transform="translate(11 11)"/>
</clipPath>
</defs>
</svg>
